PathFileType	4	(X/Y/Z)	10_2_31_p1_0-524.trc
DataRate	CameraRate	NumFrames	NumMarkers	Units	OrigDataRate	OrigDataStartFrame	OrigNumFrames
60.0	60.0	5	27	m	60.0	459	525
Frame#	Time	RHip			RKnee			RAnkle			RBigToe			RSmallToe			RHeel			LHip			LKnee			LAnkle			LBigToe			LSmallToe			LHeel			Neck			Head			Nose			RShoulder			RElbow			RWrist			RThumb			RIndex			RPinky			LShoulder			LElbow			LWrist			LThumb			LIndex			LPinky			
		X1	Y1	Z1	X2	Y2	Z2	X3	Y3	Z3	X4	Y4	Z4	X5	Y5	Z5	X6	Y6	Z6	X7	Y7	Z7	X8	Y8	Z8	X9	Y9	Z9	X10	Y10	Z10	X11	Y11	Z11	X12	Y12	Z12	X13	Y13	Z13	X14	Y14	Z14	X15	Y15	Z15	X16	Y16	Z16	X17	Y17	Z17	X18	Y18	Z18	X19	Y19	Z19	X20	Y20	Z20	X21	Y21	Z21	X22	Y22	Z22	X23	Y23	Z23	X24	Y24	Z24	X25	Y25	Z25	X26	Y26	Z26	X27	Y27	Z27	
459	7.65	0.38570167093945146	0.5520087254208642	0.9708472085906942	0.3340361817154295	0.6852041238435649	1.4018608776732653	0.32356257419600776	0.782526882518022	1.7736472351806636	0.2835802575383043	0.6385789664386161	1.8658056452696399	0.3597796751682449	0.7028983425772772	1.87103589050806	0.2746240678253951	0.8904649271349753	1.8489733128468446	0.19520138043673832	0.5174971093294555	0.929971653709405	0.16666178716421337	0.5388283858603269	1.359091878311705	0.07756778159908893	0.7365202634909617	1.7374250351496099	0.1402681937950279	0.6054947919337497	1.8703241617322781	0.06325887678743757	0.6182647964446736	1.8416064153372442	0.056010104573712964	0.9064503742075389	1.8207306946288144	0.4603335503349081	0.4304719228595174	0.47006703628196833	0.5280391944604206	0.30963546640644657	0.2444989888466962	0.4879673132835229	0.25674862629687406	0.39520393192612485	0.5727340979942173	0.4828221261117981	0.5852463872434644	0.5138668331582847	0.5770272194526779	0.8398446536655937	0.5114938501158849	0.41426197334132436	0.9917776943963703	0.504126045038838	0.2871898182855791	1.0579797128028752	0.5093551689890846	0.3200534232112377	1.0814061840716231	0.5157799269109835	0.40421515940957486	1.1085750062777935	0.2877785952449358	0.4659536662285494	0.4609842366647095	0.14723124796387532	0.44529569473299935	0.5359132421661136	0.035729182141158104	0.36190955399232466	0.5480323037269209	0.02893217471268104	0.33008589407671135	0.5631508461584966	0.003354231293698083	0.2976282713435019	0.5401890610400403	-0.03114455702102508	0.29034279224276655	0.5369911821230944
460	7.666666666666667	0.3854301637650179	0.5528413203679986	0.9834243179126031	0.3385358637934799	0.6694389081588692	1.3979561096667386	0.3236127680832338	0.7825979451917922	1.7737759131439943	0.2804603813060902	0.6246799658313952	1.8612760092118419	0.35187045692156016	0.7048960516798483	1.8733293575382164	0.27857459650920374	0.892118594937353	1.8492486656170108	0.19521474276452738	0.5207341096409338	0.9381394900565947	0.16657156746822785	0.5391453027094054	1.3595226081113971	0.07824323878432282	0.7400918825502252	1.743093940979204	0.14123926380665722	0.603689515063988	1.8654809711236042	0.0632496760990524	0.6181225594785906	1.8414721461351014	0.05694502707015135	0.9105145797788643	1.8262481861740876	0.4565513685678008	0.4179560487513376	0.46785110248611617	0.5196921423429364	0.29687986854838433	0.2400481370077082	0.48421264215479976	0.26886710206134423	0.3938601108335926	0.5721639412969743	0.48075866888781654	0.5819107275634942	0.5140844741025389	0.5760580537368355	0.8356004857886057	0.5083651022199716	0.40552778921815996	1.0101716119676236	0.48459785352799517	0.2838474425124519	1.0803456283070374	0.4975868330125721	0.29676658827373414	1.0948676348605055	0.5122765995302286	0.4074806958356727	1.1250977556586466	0.28712508276977583	0.466448032715831	0.4609292464169651	0.09939231098285786	0.5455082241725471	0.5598081843276398	0.015443124726269195	0.35012218103965614	0.5837470770890003	0.02284747753400456	0.3307975795546593	0.6302114475164371	-0.001738883615858189	0.24463830614413395	0.5929282968694154	-0.033510644520615	0.24009743665611766	0.6246355322260779
461	7.683333333333334	0.3934847406980318	0.5659500615847395	0.9885000140740153	0.33868765801791345	0.6692794497946625	1.3980805192588999	0.3194488233302176	0.797424774690699	1.7751729332199224	0.2809187733739659	0.6234190758267882	1.864923500730235	0.3518532234045575	0.7051858751127367	1.8735754998134655	0.27785603796719105	0.8931714527913671	1.845428854414137	0.19486391244318044	0.5182440946564408	0.9341705699972773	0.16624450178863545	0.5363101390283231	1.3599257442859165	0.0774903042057033	0.7370750507107947	1.737593559405814	0.14125052723560516	0.6036788513282004	1.8654625599923649	0.06314838324152962	0.6184222026833693	1.8417839017957378	0.056408868387995165	0.9061509330392165	1.823562797055146	0.4481821107764047	0.42913966702759604	0.4673304293873013	0.5115793353970434	0.30758084234331606	0.23154064199709096	0.480496064177544	0.25888750320518444	0.38797129085537735	0.572263193790831	0.48037162957905744	0.5815105723486046	0.5178873584816486	0.5611028088382436	0.8339668973013507	0.5081082961632379	0.40498728291462527	1.017687056282544	0.46767112542727934	0.2953905121929058	1.1071428484885348	0.4828497414118968	0.3113759879531902	1.1134548891590956	0.5009331017241708	0.4521365510261052	1.140642687184903	0.2803185783997221	0.45474056632467125	0.4685890083438259	0.07877667938316604	0.5422323452521102	0.5713901755805894	0.014909101998711989	0.3574222047440151	0.6355379073333993	0.015123141287007515	0.3136007412952522	0.6630308499960212	0.009727372808741915	0.2093925039507695	0.6648230391547729	-0.002015652741352683	0.24337015163697356	0.6943257030308392
462	7.7	0.390357194983626	0.5531223356103638	0.9877113905116417	0.3390714107093725	0.6687028940927068	1.4024136138460381	0.324528235551779	0.781185242867784	1.7692191161200856	0.2839468344518747	0.6373292015948184	1.8698961401636844	0.3549635006824504	0.7196959140246777	1.8785741798172055	0.27399583676904776	0.8914686840204454	1.8447537810007852	0.19476943314433676	0.5149488311074012	0.9299683958102187	0.16549954823687363	0.5376758404182994	1.3554019226824208	0.07750100047709585	0.7370258431285645	1.7376503135951868	0.1298693219737044	0.6048909088066716	1.870837818117972	0.0631313452139518	0.6184807913958472	1.8418685577051916	0.05652474648870593	0.9059399128334856	1.823341353465504	0.4434653028672378	0.42664702953266037	0.46383699351428187	0.5025252001768944	0.3038527578943852	0.22283067705226303	0.4759535566562604	0.25594470281529585	0.3849216905204408	0.5720643445185523	0.4804380091296775	0.581605769807737	0.5183292142308602	0.5595837080372698	0.8298865496270239	0.508323602635235	0.4033240261382354	1.0215576353885008	0.4582289238738459	0.30847180117069006	1.1147834079231451	0.46773197850481635	0.3002064260519259	1.1231328292359601	0.49466950202402793	0.46816890897346003	1.1428182832824636	0.2712502382200014	0.46567051966218365	0.4683164544357184	0.07218806845672934	0.5353314526854881	0.5910624311770775	0.017177117842922956	0.34951076166802886	0.6507893752924834	0.01116310477675052	0.3081001678116367	0.7238490243555141	-0.0008243880080304288	0.2552362531683264	0.7177694412642082	-0.01349332468504756	0.24292242494612906	0.7287974345330979
463	7.716666666666667	0.3974627061974173	0.5526109088067834	0.9917621770145074	0.33783190026125276	0.6714264287264996	1.4031778583671244	0.31933887535200994	0.79784648886821	1.7752561515463072	0.28194788301195284	0.6220477028727303	1.8597687550273916	0.3517517495613169	0.7054670364715275	1.8734719073609538	0.2749513280873799	0.8904360030651279	1.838994135362496	0.19660608407284608	0.5286520436853819	0.9338666381710264	0.164582454018554	0.5355908124788864	1.3513684124860676	0.07756752229117059	0.7369543832685218	1.7375211890918547	0.12885425496895297	0.6022585320392768	1.86594500230857	0.06322894706222214	0.6184271684671134	1.8415491671727593	0.05666250025357295	0.9054742733463942	1.8232153199718508	0.43457500926842674	0.4394261131296469	0.459550480831606	0.4941916812156057	0.3159904106346933	0.21799689415340875	0.472186198218395	0.2680123002404447	0.38361587172118533	0.5684588905803974	0.49530925613439253	0.5813327436224566	0.5191980589119701	0.5615536228777033	0.8336634125587583	0.49626756024548213	0.4055767920863349	1.026183994870467	0.44526439564885373	0.335227303354696	1.1241454941310207	0.4593792828764603	0.31204572854699897	1.1266171924375368	0.48463872782851825	0.46917077187730416	1.146579680320684	0.2629407903742062	0.46078598606352983	0.4691307918166231	0.06166267815568646	0.5415829463759381	0.625575287930308	0.010650246601069564	0.3585579666818663	0.7072477873509292	0.038263228832682405	0.21383361669809653	0.7583814058842175	0.008090707495910787	0.22637926614106582	0.7574992806453354	-0.01781027511794306	0.2708198908339086	0.7928520954297392
